<svg width="214" height="72" viewBox="0 0 214 72" fill="none" xmlns="http://www.w3.org/2000/svg">
<path d="M11.6548 42H3.41619L15.9695 5.63636H25.8771L38.4126 42H30.174L21.0653 13.946H20.7812L11.6548 42ZM11.1399 27.7067H30.6001V33.7081H11.1399V27.7067ZM53.9448 14.7273V20.4091H37.5208V14.7273H53.9448ZM41.2495 8.19318H48.8134V33.6193C48.8134 34.3177 48.9199 34.8622 49.133 35.2528C49.3461 35.6316 49.642 35.898 50.0208 36.0518C50.4114 36.2057 50.8612 36.2827 51.3702 36.2827C51.7253 36.2827 52.0804 36.2531 52.4355 36.1939C52.7907 36.1229 53.0629 36.0696 53.2523 36.0341L54.4419 41.6626C54.0632 41.781 53.5305 41.9171 52.8439 42.071C52.1574 42.2367 51.3229 42.3374 50.3404 42.3729C48.5175 42.4439 46.9194 42.2012 45.5463 41.6449C44.1851 41.0885 43.1257 40.2244 42.3681 39.0526C41.6105 37.8807 41.2376 36.401 41.2495 34.6136V8.19318ZM57.372 42V14.7273H64.9359V42H57.372ZM61.1717 11.2116C60.0472 11.2116 59.0824 10.8388 58.2775 10.093C57.4844 9.33546 57.0879 8.42992 57.0879 7.37642C57.0879 6.33475 57.4844 5.44105 58.2775 4.69531C59.0824 3.93774 60.0472 3.55895 61.1717 3.55895C62.2962 3.55895 63.255 3.93774 64.0481 4.69531C64.853 5.44105 65.2555 6.33475 65.2555 7.37642C65.2555 8.42992 64.853 9.33546 64.0481 10.093C63.255 10.8388 62.2962 11.2116 61.1717 11.2116ZM84.0014 14.7273V20.4091H67.5774V14.7273H84.0014ZM71.3061 8.19318H78.87V33.6193C78.87 34.3177 78.9766 34.8622 79.1896 35.2528C79.4027 35.6316 79.6986 35.898 80.0774 36.0518C80.468 36.2057 80.9179 36.2827 81.4268 36.2827C81.782 36.2827 82.1371 36.2531 82.4922 36.1939C82.8473 36.1229 83.1196 36.0696 83.3089 36.0341L84.4986 41.6626C84.1198 41.781 83.5871 41.9171 82.9006 42.071C82.214 42.2367 81.3795 42.3374 80.397 42.3729C78.5741 42.4439 76.9761 42.2012 75.603 41.6449C74.2417 41.0885 73.1823 40.2244 72.4247 39.0526C71.6671 37.8807 71.2943 36.401 71.3061 34.6136V8.19318ZM97.6429 42V5.63636H111.99C114.748 5.63636 117.097 6.16311 119.039 7.21662C120.98 8.25829 122.459 9.70833 123.477 11.5668C124.507 13.4134 125.022 15.544 125.022 17.9588C125.022 20.3736 124.501 22.5043 123.46 24.3509C122.418 26.1974 120.909 27.6357 118.932 28.6655C116.967 29.6953 114.588 30.2102 111.794 30.2102H102.65V24.049H110.551C112.031 24.049 113.25 23.7945 114.209 23.2855C115.18 22.7647 115.902 22.0485 116.375 21.1371C116.86 20.2138 117.103 19.1544 117.103 17.9588C117.103 16.7514 116.86 15.6979 116.375 14.7983C115.902 13.8868 115.18 13.1825 114.209 12.6854C113.238 12.1764 112.007 11.9219 110.516 11.9219H105.331V42H97.6429ZM135.419 42.5149C133.678 42.5149 132.128 42.2131 130.767 41.6094C129.405 40.9938 128.328 40.0883 127.535 38.8928C126.754 37.6854 126.363 36.1821 126.363 34.3828C126.363 32.8677 126.641 31.5952 127.198 30.5653C127.754 29.5355 128.512 28.7069 129.47 28.0795C130.429 27.4522 131.518 26.9787 132.737 26.6591C133.968 26.3395 135.259 26.1146 136.608 25.9844C138.194 25.8187 139.473 25.6648 140.443 25.5227C141.414 25.3688 142.118 25.1439 142.556 24.848C142.994 24.5521 143.213 24.1141 143.213 23.5341V23.4276C143.213 22.303 142.858 21.433 142.148 20.8175C141.45 20.2019 140.455 19.8942 139.165 19.8942C137.804 19.8942 136.721 20.196 135.916 20.7997C135.111 21.3916 134.578 22.1373 134.318 23.0369L127.322 22.4688C127.677 20.8116 128.375 19.3793 129.417 18.1719C130.459 16.9527 131.802 16.0175 133.448 15.3665C135.105 14.7036 137.022 14.3722 139.2 14.3722C140.716 14.3722 142.166 14.5497 143.551 14.9048C144.947 15.2599 146.184 15.8104 147.262 16.5561C148.351 17.3018 149.209 18.2607 149.836 19.4325C150.463 20.5926 150.777 21.9834 150.777 23.6051V42H143.604V38.218H143.391C142.953 39.0703 142.367 39.822 141.633 40.473C140.899 41.1122 140.017 41.6153 138.987 41.9822C137.958 42.3374 136.768 42.5149 135.419 42.5149ZM137.585 37.2947C138.697 37.2947 139.68 37.0758 140.532 36.6378C141.384 36.188 142.053 35.5843 142.539 34.8267C143.024 34.0691 143.267 33.2109 143.267 32.2521V29.358C143.03 29.5118 142.704 29.6539 142.29 29.7841C141.887 29.9025 141.432 30.0149 140.923 30.1214C140.414 30.2161 139.905 30.3049 139.396 30.3878C138.887 30.4588 138.425 30.5239 138.011 30.5831C137.123 30.7133 136.348 30.9205 135.685 31.2045C135.022 31.4886 134.507 31.8733 134.14 32.3587C133.773 32.8321 133.59 33.424 133.59 34.1342C133.59 35.1641 133.963 35.9512 134.708 36.4957C135.466 37.0284 136.425 37.2947 137.585 37.2947ZM169.652 14.7273V20.4091H153.228V14.7273H169.652ZM156.956 8.19318H164.52V33.6193C164.52 34.3177 164.627 34.8622 164.84 35.2528C165.053 35.6316 165.349 35.898 165.728 36.0518C166.118 36.2057 166.568 36.2827 167.077 36.2827C167.432 36.2827 167.787 36.2531 168.143 36.1939C168.498 36.1229 168.77 36.0696 168.959 36.0341L170.149 41.6626C169.77 41.781 169.238 41.9171 168.551 42.071C167.864 42.2367 167.03 42.3374 166.047 42.3729C164.224 42.4439 162.626 42.2012 161.253 41.6449C159.892 41.0885 158.833 40.2244 158.075 39.0526C157.318 37.8807 156.945 36.401 156.956 34.6136V8.19318ZM185.215 42.5327C182.41 42.5327 179.995 41.9645 177.971 40.8281C175.958 39.6799 174.408 38.0582 173.319 35.9631C172.23 33.8561 171.685 31.3643 171.685 28.4879C171.685 25.6825 172.23 23.2204 173.319 21.1016C174.408 18.9827 175.941 17.3314 177.917 16.1477C179.906 14.964 182.238 14.3722 184.913 14.3722C186.712 14.3722 188.387 14.6622 189.938 15.2422C191.501 15.8104 192.862 16.6686 194.022 17.8168C195.194 18.965 196.105 20.4091 196.756 22.1491C197.407 23.8774 197.733 25.9015 197.733 28.2216V30.299H174.704V25.6115H190.613C190.613 24.5225 190.376 23.5578 189.903 22.7173C189.429 21.8769 188.772 21.2199 187.932 20.7464C187.103 20.2611 186.138 20.0185 185.037 20.0185C183.889 20.0185 182.871 20.2848 181.983 20.8175C181.108 21.3383 180.421 22.0426 179.924 22.9304C179.427 23.8063 179.172 24.7829 179.16 25.8601V30.3168C179.16 31.6662 179.409 32.8321 179.906 33.8146C180.415 34.7971 181.131 35.5547 182.055 36.0874C182.978 36.62 184.073 36.8864 185.339 36.8864C186.18 36.8864 186.949 36.768 187.648 36.5312C188.346 36.2945 188.944 35.9394 189.441 35.4659C189.938 34.9924 190.317 34.4124 190.577 33.7259L197.573 34.1875C197.218 35.8684 196.49 37.3362 195.389 38.5909C194.3 39.8338 192.891 40.8045 191.163 41.5028C189.447 42.1894 187.464 42.5327 185.215 42.5327ZM208.733 5.63636V42H201.169V5.63636H208.733Z" fill="white"/>
<path d="M9.72124 66H4.56499V51.4545H9.76385C11.2269 51.4545 12.4864 51.7457 13.5423 52.3281C14.5981 52.9058 15.4102 53.7367 15.9783 54.821C16.5513 55.9053 16.8377 57.2027 16.8377 58.7131C16.8377 60.2282 16.5513 61.5303 15.9783 62.6193C15.4102 63.7083 14.5934 64.544 13.5281 65.1264C12.4674 65.7088 11.1985 66 9.72124 66ZM7.64027 63.3651H9.59339C10.5025 63.3651 11.2672 63.2041 11.8874 62.8821C12.5124 62.5554 12.9812 62.0511 13.2937 61.3693C13.6109 60.6828 13.7695 59.7973 13.7695 58.7131C13.7695 57.6383 13.6109 56.7599 13.2937 56.0781C12.9812 55.3963 12.5148 54.8944 11.8945 54.5724C11.2743 54.2505 10.5096 54.0895 9.6005 54.0895H7.64027V63.3651ZM25.3736 66V51.4545H35.1747V53.9901H28.4489V57.456H34.6705V59.9915H28.4489V63.4645H35.2031V66H25.3736ZM46.5053 51.4545L50.021 62.5057H50.1559L53.6786 51.4545H57.0877L52.0735 66H48.1104L43.0891 51.4545H46.5053ZM78.4627 58.7273C78.4627 60.3134 78.1621 61.6629 77.5607 62.7756C76.9641 63.8883 76.1497 64.7382 75.1175 65.3253C74.0901 65.9077 72.9348 66.1989 71.6516 66.1989C70.359 66.1989 69.199 65.9053 68.1715 65.3182C67.1441 64.7311 66.332 63.8812 65.7354 62.7685C65.1388 61.6558 64.8406 60.3087 64.8406 58.7273C64.8406 57.1411 65.1388 55.7917 65.7354 54.679C66.332 53.5663 67.1441 52.7187 68.1715 52.1364C69.199 51.5492 70.359 51.2557 71.6516 51.2557C72.9348 51.2557 74.0901 51.5492 75.1175 52.1364C76.1497 52.7187 76.9641 53.5663 77.5607 54.679C78.1621 55.7917 78.4627 57.1411 78.4627 58.7273ZM75.3448 58.7273C75.3448 57.6998 75.1909 56.8333 74.8832 56.1278C74.5801 55.4223 74.1516 54.8873 73.5977 54.5227C73.0437 54.1581 72.395 53.9759 71.6516 53.9759C70.9083 53.9759 70.2596 54.1581 69.7056 54.5227C69.1516 54.8873 68.7208 55.4223 68.413 56.1278C68.11 56.8333 67.9585 57.6998 67.9585 58.7273C67.9585 59.7547 68.11 60.6212 68.413 61.3267C68.7208 62.0322 69.1516 62.5672 69.7056 62.9318C70.2596 63.2964 70.9083 63.4787 71.6516 63.4787C72.395 63.4787 73.0437 63.2964 73.5977 62.9318C74.1516 62.5672 74.5801 62.0322 74.8832 61.3267C75.1909 60.6212 75.3448 59.7547 75.3448 58.7273ZM86.9986 66V51.4545H92.7372C93.8404 51.4545 94.7803 51.6652 95.5568 52.0866C96.3333 52.5033 96.9252 53.0833 97.3324 53.8267C97.7443 54.5653 97.9503 55.4176 97.9503 56.3835C97.9503 57.3494 97.742 58.2017 97.3253 58.9403C96.9086 59.679 96.3049 60.2543 95.5142 60.6662C94.7282 61.0781 93.7765 61.2841 92.6591 61.2841H89.0014V58.8196H92.1619C92.7538 58.8196 93.2415 58.7178 93.625 58.5142C94.0133 58.3059 94.3021 58.0194 94.4915 57.6548C94.6856 57.2855 94.7827 56.8617 94.7827 56.3835C94.7827 55.9006 94.6856 55.4792 94.4915 55.1193C94.3021 54.7547 94.0133 54.473 93.625 54.2741C93.2367 54.0705 92.7443 53.9688 92.1477 53.9688H90.0739V66H86.9986ZM114.096 55.6378C114.039 55.0649 113.796 54.6198 113.365 54.3026C112.934 53.9853 112.349 53.8267 111.61 53.8267C111.109 53.8267 110.685 53.8977 110.339 54.0398C109.993 54.1771 109.728 54.3688 109.544 54.6151C109.364 54.8613 109.274 55.1406 109.274 55.4531C109.264 55.7135 109.319 55.9408 109.437 56.1349C109.56 56.3291 109.728 56.4972 109.941 56.6392C110.154 56.7765 110.401 56.8973 110.68 57.0014C110.959 57.1009 111.258 57.1861 111.575 57.2571L112.882 57.5696C113.516 57.7116 114.099 57.901 114.629 58.1378C115.159 58.3745 115.618 58.6657 116.007 59.0114C116.395 59.357 116.696 59.7642 116.909 60.233C117.127 60.7017 117.238 61.2391 117.243 61.8452C117.238 62.7353 117.011 63.5071 116.561 64.1605C116.116 64.8092 115.472 65.3134 114.629 65.6733C113.791 66.0284 112.78 66.206 111.596 66.206C110.422 66.206 109.399 66.026 108.528 65.6662C107.662 65.3063 106.984 64.7737 106.497 64.0682C106.014 63.358 105.761 62.4796 105.737 61.4332H108.713C108.746 61.9209 108.886 62.3281 109.132 62.6548C109.383 62.9768 109.717 63.2206 110.133 63.3864C110.555 63.5473 111.03 63.6278 111.561 63.6278C112.082 63.6278 112.534 63.5521 112.917 63.4006C113.306 63.2491 113.606 63.0384 113.819 62.7685C114.032 62.4986 114.139 62.1884 114.139 61.8381C114.139 61.5114 114.042 61.2367 113.848 61.0142C113.658 60.7917 113.379 60.6023 113.01 60.446C112.645 60.2898 112.198 60.1477 111.667 60.0199L110.083 59.6222C108.857 59.3239 107.889 58.8575 107.179 58.223C106.468 57.5885 106.116 56.7339 106.12 55.6591C106.116 54.7784 106.35 54.009 106.824 53.3509C107.302 52.6927 107.958 52.179 108.791 51.8097C109.624 51.4403 110.571 51.2557 111.632 51.2557C112.711 51.2557 113.654 51.4403 114.458 51.8097C115.268 52.179 115.898 52.6927 116.348 53.3509C116.797 54.009 117.029 54.7713 117.044 55.6378H114.096ZM140.085 66V51.4545H143.16V63.4645H149.396V66H140.085ZM157.69 66V51.4545H167.491V53.9901H160.765V57.456H166.987V59.9915H160.765V63.4645H167.52V66H157.69ZM178.701 66H175.406L180.427 51.4545H184.39L189.404 66H186.109L182.465 54.7784H182.352L178.701 66ZM178.495 60.2827H186.279V62.6832H178.495V60.2827ZM202.569 66H197.413V51.4545H202.612C204.075 51.4545 205.334 51.7457 206.39 52.3281C207.446 52.9058 208.258 53.7367 208.826 54.821C209.399 55.9053 209.685 57.2027 209.685 58.7131C209.685 60.2282 209.399 61.5303 208.826 62.6193C208.258 63.7083 207.441 64.544 206.376 65.1264C205.315 65.7088 204.046 66 202.569 66ZM200.488 63.3651H202.441C203.35 63.3651 204.115 63.2041 204.735 62.8821C205.36 62.5554 205.829 62.0511 206.141 61.3693C206.459 60.6828 206.617 59.7973 206.617 58.7131C206.617 57.6383 206.459 56.7599 206.141 56.0781C205.829 55.3963 205.362 54.8944 204.742 54.5724C204.122 54.2505 203.357 54.0895 202.448 54.0895H200.488V63.3651Z" fill="white"/>
</svg>
