<?xml version="1.0" encoding="UTF-8" standalone="no"?>
<svg
   xmlns:dc="http://purl.org/dc/elements/1.1/"
   xmlns:cc="http://creativecommons.org/ns#"
   xmlns:rdf="http://www.w3.org/1999/02/22-rdf-syntax-ns#"
   xmlns:svg="http://www.w3.org/2000/svg"
   xmlns="http://www.w3.org/2000/svg"
   xmlns:sodipodi="http://sodipodi.sourceforge.net/DTD/sodipodi-0.dtd"
   xmlns:inkscape="http://www.inkscape.org/namespaces/inkscape"
   width="400"
   height="400"
   viewBox="0 0 105.83334 105.83334"
   version="1.1"
   id="svg32"
   inkscape:version="1.0.1 (1.0.1+r73)"
   sodipodi:docname="icon.svg"
   inkscape:export-filename="/home/john/Downloads/chef-icon.png"
   inkscape:export-xdpi="47.999996"
   inkscape:export-ydpi="47.999996">
  <defs
     id="defs26" />
  <sodipodi:namedview
     id="base"
     pagecolor="#ffffff"
     bordercolor="#666666"
     borderopacity="1.0"
     inkscape:pageopacity="0.0"
     inkscape:pageshadow="2"
     inkscape:zoom="0.98994949"
     inkscape:cx="193.21429"
     inkscape:cy="245.86755"
     inkscape:document-units="mm"
     inkscape:current-layer="layer1"
     showgrid="false"
     units="px"
     inkscape:pagecheckerboard="true"
     inkscape:window-width="1920"
     inkscape:window-height="977"
     inkscape:window-x="0"
     inkscape:window-y="34"
     inkscape:window-maximized="1"
     inkscape:document-rotation="0" />
  <metadata
     id="metadata29">
    <rdf:RDF>
      <cc:Work
         rdf:about="">
        <dc:format>image/svg+xml</dc:format>
        <dc:type
           rdf:resource="http://purl.org/dc/dcmitype/StillImage" />
        <dc:title></dc:title>
      </cc:Work>
    </rdf:RDF>
  </metadata>
  <g
     inkscape:label="Layer 1"
     inkscape:groupmode="layer"
     id="layer1"
     transform="translate(0,-164.70832)">
    <g
       id="g60"
       transform="matrix(0.52699913,0,0,0.52699913,-10.390488,174.76688)">
      <path
         style="fill:#3f5464;stroke-width:0.679679"
         inkscape:connector-curvature="0"
         id="path14"
         d="m 120.33153,115.44472 c -18.89509,0 -33.983968,-15.08888 -33.983968,-33.983961 0,-18.895093 15.088878,-33.983968 33.983968,-33.983968 15.42871,0 28.47857,10.263153 32.55664,24.672354 h 13.04984 c -4.14605,-21.6138 -22.97317,-37.382358 -45.60648,-37.382358 -25.69188,0 -46.626003,20.934125 -46.626003,46.625999 0,25.691884 20.934123,46.626004 46.626003,46.626004 22.63331,0 41.5284,-16.1084 45.94632,-37.382362 H 153.22802 C 148.8101,105.1136 135.76024,115.44472 120.33153,115.44472"
         class="st0" />
      <path
         style="fill:#3f5464;stroke-width:0.679679"
         inkscape:connector-curvature="0"
         id="path16"
         d="m 97.358367,104.43392 c 5.845243,5.84523 14.069363,9.58347 22.973163,9.58347 v -13.66155 c -5.16556,0 -9.92332,-2.039041 -13.38969,-5.5054 z"
         class="st0" />
      <path
         style="fill:#f09820;stroke-width:0.679679"
         inkscape:connector-curvature="0"
         id="path18"
         d="m 87.706921,81.460759 c 0,4.825721 1.019519,8.903795 2.718717,13.049842 L 102.7958,89.005196 c -1.01952,-2.378878 -1.6992,-4.82572 -1.6992,-7.544437 0,-10.263162 8.56396,-18.895093 18.89509,-18.895093 V 48.83615 C 102.45596,48.9041 87.706921,63.653159 87.706921,81.460759"
         class="st1" />
      <path
         style="fill:#3f5464;stroke-width:0.679679"
         inkscape:connector-curvature="0"
         id="path20"
         d="m 131.95404,51.282992 -4.82572,12.710005 c 4.14604,1.699196 7.2046,4.485884 9.58349,8.224121 H 151.121 c -2.71871,-9.651452 -9.92331,-17.535726 -19.16696,-20.934126"
         class="st0" />
      <path
         style="fill:#f09820;stroke-width:0.679679"
         inkscape:connector-curvature="0"
         id="path22"
         d="m 127.19629,98.928514 4.82571,12.709996 c 9.24364,-3.39839 16.44825,-11.35064 19.23495,-20.934118 H 136.5079 c -2.10702,3.806209 -5.23354,6.864767 -9.31161,8.224122"
         class="st1" />
      <path
         style="fill:#f09820;stroke-width:0.679679"
         inkscape:connector-curvature="0"
         id="path24"
         d="m 120.33153,144.19515 c -17.12792,0 -32.896482,-7.2046 -44.247126,-18.48727 l -8.9038,8.90379 c 13.729522,13.72953 32.55664,21.95365 53.490766,21.95365 38.40188,0 70.27885,-28.81841 74.76473,-65.860928 h -13.04984 c -4.82574,30.177758 -30.85746,53.490758 -62.05473,53.490758"
         class="st1" />
      <path
         style="fill:#f09820;stroke-width:0.679679"
         inkscape:connector-curvature="0"
         id="path26"
         d="m 120.33153,18.726356 c 14.06935,0 27.11919,4.82572 37.38236,12.370158 l 7.54444,-10.263153 C 152.88817,11.58972 137.1196,6.0843145 120.33153,6.0843145 88.454567,6.0843145 60.995521,25.99892 50.052684,54.069681 L 62.08301,58.895402 C 70.91884,35.514434 93.892003,18.726356 120.33153,18.726356"
         class="st1" />
      <path
         style="fill:#3f5464;stroke-width:0.679679"
         inkscape:connector-curvature="0"
         id="path28"
         d="M 182.38626,72.217118 H 195.4361 C 194.07674,61.274281 190.27053,50.603309 184.49325,41.699513 l -10.94282,6.864763 c 4.34993,6.864762 7.47646,14.749037 8.83583,23.652842"
         class="st0" />
      <path
         style="fill:#f09820;stroke-width:0.679679"
         inkscape:connector-curvature="0"
         id="path30"
         d="m 167.63721,72.217118 h 13.04984 C 177.28866,50.603309 162.53962,32.455872 142.62501,24.911434 l -4.82572,12.030322 c 15.08888,5.437441 26.77936,18.827121 29.83792,35.275362"
         class="st1" />
      <path
         style="fill:#3f5464;stroke-width:0.679679"
         inkscape:connector-curvature="0"
         id="path32"
         d="m 120.33153,33.135555 v 0 -12.710004 c -25.69188,0 -47.985363,16.108404 -56.957131,39.081562 l 12.030325,4.485884 c 6.864762,-18.21541 24.33252,-30.857442 44.926806,-30.857442"
         class="st0" />
      <path
         style="fill:#f09820;stroke-width:0.679679"
         inkscape:connector-curvature="0"
         id="path34"
         d="m 71.93836,81.460759 v 0 H 59.228355 c 0,25.691871 15.768561,47.645521 38.401882,56.617281 l 4.825723,-12.03032 C 84.648363,119.18296 71.93836,101.71519 71.93836,81.460759"
         class="st1" />
      <path
         style="fill:#3f5464;stroke-width:0.679679"
         inkscape:connector-curvature="0"
         id="path36"
         d="m 120.33153,129.85393 v 12.64202 c 30.5176,0 55.93761,-22.29348 60.35552,-51.791558 h -13.04984 c -4.48588,22.293468 -23.99268,39.149538 -47.30568,39.149538"
         class="st0" />
      <path
         style="fill:#3f5464;stroke-width:0.679679"
         inkscape:connector-curvature="0"
         id="path38"
         d="M 51.344076,111.97836 C 46.858191,102.05504 44.819154,91.723912 44.819154,81.460759 h 12.710003 c 0,8.563959 1.699198,17.127909 5.165563,25.352031 z"
         class="st0" />
    </g>
  </g>
</svg>
